<svg width="40" height="40" viewBox="0 0 40 40" fill="none" xmlns="http://www.w3.org/2000/svg">
<path d="M22 15H14C13.45 15 13 14.55 13 14C13 13.45 13.45 13 14 13H22C22.55 13 23 13.45 23 14C23 14.55 22.55 15 22 15Z" fill="white"/>
<path d="M22 20H14C13.45 20 13 19.55 13 19C13 18.45 13.45 18 14 18H22C22.55 18 23 18.45 23 19C23 19.55 22.55 20 22 20Z" fill="white"/>
<path d="M20.11 25H13.89C13.4 25 13 24.55 13 24C13 23.45 13.4 23 13.89 23H20.11C20.6 23 21 23.45 21 24C21 24.55 20.6 25 20.11 25Z" fill="white"/>
<path d="M19 30H10.84C9.27 30 8 28.73 8 27.16V10.84C8 9.27 9.27 8 10.84 8H25.16C26.73 8 28 9.27 28 10.84V19C28 19.55 27.55 20 27 20C26.45 20 26 19.55 26 19V10.84C26 10.38 25.62 10 25.16 10H10.84C10.38 10 10 10.38 10 10.84V27.16C10 27.62 10.38 28 10.84 28H19C19.55 28 20 28.45 20 29C20 29.55 19.55 30 19 30Z" fill="white"/>
<path d="M31 29H25C23.9 29 23 28.1 23 27V24C23 22.9 23.9 22 25 22H31C32.1 22 33 22.9 33 24V27C33 28.1 32.1 29 31 29ZM25 24V27H31V24H25Z" fill="white"/>
<path d="M33.1333 32H22.8667C22.39 32 22 31.55 22 31C22 30.45 22.39 30 22.8667 30H33.1333C33.61 30 34 30.45 34 31C34 31.55 33.61 32 33.1333 32Z" fill="white"/>
</svg>
