<svg width="40" height="40" viewBox="0 0 40 40" fill="none" xmlns="http://www.w3.org/2000/svg">
<path d="M23 15H16" stroke="white" stroke-width="2" stroke-miterlimit="10" stroke-linecap="round" stroke-linejoin="round"/>
<path d="M23 20H16" stroke="white" stroke-width="2" stroke-miterlimit="10" stroke-linecap="round" stroke-linejoin="round"/>
<path d="M22 25H16" stroke="white" stroke-width="2" stroke-miterlimit="10" stroke-linecap="round" stroke-linejoin="round"/>
<path d="M18.37 30.01H12.74V30C11.78 30 11 29.21 11 28.24V10.76C11 9.79 11.78 9 12.74 9H26.27C27.22 9 28 9.79 28 10.76V18.56" stroke="white" stroke-width="2" stroke-miterlimit="10" stroke-linecap="round" stroke-linejoin="round"/>
<path d="M23.98 33.0894L22.35 33.4994C21.94 33.5994 21.56 33.2894 21.57 32.8694L21.63 31.1894C21.64 31.0494 21.68 30.9194 21.77 30.8194L27.43 23.8394C27.65 23.5694 28.04 23.5294 28.31 23.7494L29.88 25.0194C30.15 25.2394 30.19 25.6294 29.97 25.8994L24.31 32.8794C24.23 32.9794 24.11 33.0594 23.98 33.0894Z" fill="white"/>
<path d="M30.7 24.2703L28.87 22.7803C28.67 22.6203 28.64 22.3303 28.8 22.1403L29.3 21.5203C29.46 21.3203 29.75 21.2903 29.94 21.4503L31.77 22.9403C31.97 23.1003 32 23.3903 31.84 23.5803L31.34 24.2003C31.19 24.4003 30.9 24.4303 30.7 24.2703Z" fill="white"/>
</svg>
