<svg width="40" height="40" viewBox="0 0 40 40" fill="none" xmlns="http://www.w3.org/2000/svg">
<path fill-rule="evenodd" clip-rule="evenodd" d="M26.3479 13.0149C26.2332 13.005 26.1172 13 26 13C23.7909 13 22 14.7909 22 17C22 19.2091 23.7909 21 26 21C27.8638 21 29.4299 19.7252 29.874 18C29.9562 17.6804 30 17.3453 30 17C30 16.6547 29.9562 16.3196 29.874 16C29.627 15.0405 29.033 14.2203 28.2336 13.6812C27.9564 13.4943 27.6544 13.3411 27.3336 13.2277C27.3335 13.2277 27.3337 13.2277 27.3336 13.2277C27.0211 13.1173 26.6905 13.0444 26.3479 13.0149ZM25.6345 15.0333C24.7045 15.2051 24 16.0203 24 17C24 18.1046 24.8954 19 26 19C26.7403 19 27.3866 18.5978 27.7324 18H26.707C25.6718 18 24.9478 16.9762 25.2928 16.0001L25.6345 15.0333ZM27.7325 16C27.6709 15.8934 27.5997 15.793 27.5201 15.6999L27.4141 16H27.7325Z" fill="white"/>
<path fill-rule="evenodd" clip-rule="evenodd" d="M19 19V27H17V19C17 18.4477 17.4477 18 18 18C18.5523 18 19 18.4477 19 19Z" fill="white"/>
<path fill-rule="evenodd" clip-rule="evenodd" d="M15 22V27H13V22C13 21.4477 13.4477 21 14 21C14.5523 21 15 21.4477 15 22Z" fill="white"/>
<path fill-rule="evenodd" clip-rule="evenodd" d="M11 15V27H9V15C9 14.4477 9.44772 14 10 14C10.5523 14 11 14.4477 11 15Z" fill="white"/>
<path fill-rule="evenodd" clip-rule="evenodd" d="M31 11H8C6.89543 11 6 11.8954 6 13V27C6 28.1046 6.89543 29 8 29H31C32.1046 29 33 28.1046 33 27V13C33 11.8954 32.1046 11 31 11ZM8 9C5.79086 9 4 10.7909 4 13V27C4 29.2091 5.79086 31 8 31H31C33.2091 31 35 29.2091 35 27V13C35 10.7909 33.2091 9 31 9H8Z" fill="white"/>
<path fill-rule="evenodd" clip-rule="evenodd" d="M23 22C22.4477 22 22 22.4477 22 23C22 23.5523 22.4477 24 23 24H29C29.5523 24 30 23.5523 30 23C30 22.4477 29.5523 22 29 22H23Z" fill="white"/>
<path fill-rule="evenodd" clip-rule="evenodd" d="M23 25C22.4477 25 22 25.4477 22 26C22 26.5523 22.4477 27 23 27H29C29.5523 27 30 26.5523 30 26C30 25.4477 29.5523 25 29 25H23Z" fill="white"/>
</svg>
