<svg width="40" height="40" viewBox="0 0 40 40" fill="none" xmlns="http://www.w3.org/2000/svg">
<path d="M19.5 30C25.299 30 30 25.299 30 19.5C30 13.701 25.299 9 19.5 9C13.701 9 9 13.701 9 19.5C9 25.299 13.701 30 19.5 30Z" stroke="white" stroke-width="2" stroke-miterlimit="10" stroke-linecap="round" stroke-linejoin="round"/>
<path d="M24.29 15.02C25.35 16.18 26 17.72 26 19.42C26 19.7 25.98 19.98 25.95 20.25" stroke="white" stroke-width="2" stroke-miterlimit="10" stroke-linecap="round" stroke-linejoin="round"/>
<path d="M21.81 25.49C21.09 25.76 20.31 25.91 19.5 25.91C15.91 25.91 13 23 13 19.41C13 17.79 13.59 16.31 14.57 15.17" stroke="white" stroke-width="2" stroke-miterlimit="10" stroke-linecap="round" stroke-linejoin="round"/>
<path d="M22.28 17.16C22.8 17.78 23.11 18.58 23.11 19.45C23.11 21.41 21.52 23 19.56 23C17.6 23 16 21.41 16 19.45" stroke="white" stroke-width="2" stroke-miterlimit="10" stroke-linecap="round" stroke-linejoin="round"/>
<path d="M24.5 25C25.3284 25 26 24.3284 26 23.5C26 22.6716 25.3284 22 24.5 22C23.6716 22 23 22.6716 23 23.5C23 24.3284 23.6716 25 24.5 25Z" fill="white"/>
<path d="M17.5 14C18.3284 14 19 13.3284 19 12.5C19 11.6716 18.3284 11 17.5 11C16.6716 11 16 11.6716 16 12.5C16 13.3284 16.6716 14 17.5 14Z" fill="white"/>
<path d="M20 19L25 14" stroke="white" stroke-width="2" stroke-miterlimit="10" stroke-linecap="round" stroke-linejoin="round"/>
<path d="M19.5 21C20.3284 21 21 20.3284 21 19.5C21 18.6716 20.3284 18 19.5 18C18.6716 18 18 18.6716 18 19.5C18 20.3284 18.6716 21 19.5 21Z" fill="white"/>
</svg>
