<svg width="40" height="40" viewBox="0 0 40 40" fill="none" xmlns="http://www.w3.org/2000/svg">
<path d="M17.4901 22.6373L18.5573 19.01H20L18.2016 24H16.7787L15 19H16.4328L17.4901 22.6373Z" fill="white"/>
<path d="M22.8483 22.2329H22.1954V24H21V19H22.9586C23.5471 19 24.0069 19.1305 24.3379 19.3916C24.669 19.6526 24.8345 20.0241 24.8345 20.506C24.8345 20.8574 24.7609 21.1386 24.623 21.3695C24.4851 21.6004 24.2644 21.7811 23.9609 21.9217L25 23.9398V23.99H23.7126L22.8483 22.2329ZM22.2046 21.3092H22.9586C23.1885 21.3092 23.354 21.249 23.4736 21.1285C23.5931 21.008 23.6483 20.8373 23.6483 20.6265C23.6483 20.4157 23.5931 20.245 23.4736 20.1145C23.354 19.994 23.1885 19.9337 22.9586 19.9337H22.2046V21.3092Z" fill="white"/>
<path d="M28.26 28.64H23.69L22.87 26.7H20.13H17.4L16.51 28.64H12.74C11.23 28.64 10 27.33 10 25.72V18.92C10 17.31 11.23 16 12.74 16H28.26C29.77 16 31 17.31 31 18.92V25.73C31 27.33 29.77 28.64 28.26 28.64Z" stroke="white" stroke-width="2" stroke-miterlimit="10" stroke-linecap="round" stroke-linejoin="round"/>
<path d="M30 16.68L27.35 13.94C26.77 13.33 26 13 25.2 13H15.1C14.15 13 13.26 13.47 12.67 14.27L10.42 17.31" stroke="white" stroke-width="2" stroke-miterlimit="10" stroke-linecap="round" stroke-linejoin="round"/>
<path d="M32.5 24.5H31.5C30.95 24.5 30.5 24.05 30.5 23.5V20.5C30.5 19.95 30.95 19.5 31.5 19.5H32.5C33.05 19.5 33.5 19.95 33.5 20.5V23.5C33.5 24.05 33.05 24.5 32.5 24.5Z" stroke="white" stroke-miterlimit="10" stroke-linecap="round" stroke-linejoin="round"/>
<path d="M9.5 24.5H8.5C7.95 24.5 7.5 24.05 7.5 23.5V20.5C7.5 19.95 7.95 19.5 8.5 19.5H9.5C10.05 19.5 10.5 19.95 10.5 20.5V23.5C10.5 24.05 10.05 24.5 9.5 24.5Z" stroke="white" stroke-miterlimit="10" stroke-linecap="round" stroke-linejoin="round"/>
</svg>
