<svg
            class="main-logo"
            width="111"
            height="29"
            viewBox="0 0 111 29"
            fill="none"
            xmlns="http://www.w3.org/2000/svg"
        >
            <path
                d="M35.2104 5.99866V10.795H47.3719V16.7936H35.2104V21.5377H47.3719V27.5363H27.1465V0H47.3719V5.99866H35.2104Z"
                fill="white"
            />
            <path
                d="M74.7025 27.4579H65.785L61.5691 19.4336H58.3121V27.4579H50.2351V0H64.7211C67.6368 0.0392069 70.2503 1.12393 72.0627 3.05814C73.7438 4.83552 74.6762 7.21408 74.6762 9.73639C74.6762 12.2587 73.7438 14.6373 72.0627 16.4146C71.406 17.1073 70.6443 17.6954 69.8169 18.1659L74.7025 27.4579ZM67.3347 9.73639C67.3347 9.00453 67.0589 7.30556 64.5504 7.30556L58.3121 7.29249V12.1672H64.5504C67.0589 12.1672 67.3347 10.4683 67.3347 9.73639Z"
                fill="white"
            />
            <path
                d="M104.2 13.7616C104.2 21.3547 98.0144 27.5233 90.3708 27.5233C82.7403 27.5233 76.5414 21.3678 76.5414 13.7616C76.5414 6.15549 82.7403 0 90.3708 0C98.0013 0 104.2 6.15549 104.2 13.7616ZM96.1626 13.7616C96.1626 10.5859 93.5754 7.99822 90.3708 7.99822C87.1794 7.99822 84.579 10.5728 84.579 13.7616C84.579 16.9505 87.1663 19.5251 90.3708 19.5251C93.5622 19.512 96.1626 16.9374 96.1626 13.7616Z"
                fill="white"
            />
            <path
                d="M24.2836 0H8.93068L1.58914 7.05725H13.0283L0 20.4007V27.4579H24.2836V20.4007H11.2553L24.2836 7.05725V0Z"
                fill="white"
            />
            <path
                d="M0.51239 0V5.24066H0.55179C2.00959 3.84228 4.42613 1.516 6.00213 0H0.51239Z"
                fill="#0CD89B"
            />
            <path
                d="M110.937 25.8765C110.937 27.6016 109.532 29 107.798 29C106.065 29 104.66 27.6016 104.66 25.8765C104.66 24.1514 106.065 22.7531 107.798 22.7531C109.532 22.7531 110.937 24.1514 110.937 25.8765Z"
                fill="#0CD89B"
            />
        </svg>