<svg width="23" height="23" viewBox="0 0 23 23" fill="none" xmlns="http://www.w3.org/2000/svg">
<path d="M11.5 15C13.433 15 15 13.433 15 11.5C15 9.567 13.433 8 11.5 8C9.567 8 8 9.567 8 11.5C8 13.433 9.567 15 11.5 15Z" stroke="white" stroke-width="2" stroke-miterlimit="10" stroke-linecap="round" stroke-linejoin="round"/>
<path d="M22 13V10L18.62 9.16C18.5 8.8 18.35 8.45 18.18 8.12L19.9 5.2L17.76 3.09L14.9 4.83C14.56 4.65 14.2 4.5 13.83 4.38L13 1H10L9.16 4.38C8.8 4.5 8.46 4.64 8.13 4.81L5.14 3.01L3.01 5.14L4.8 8.13C4.64 8.46 4.5 8.8 4.38 9.16L1 10V13L4.38 13.84C4.5 14.2 4.64 14.54 4.81 14.87L3.02 17.86L5.14 19.98L8.13 18.19C8.46 18.36 8.8 18.5 9.16 18.62L10 22H13L13.84 18.62C14.2 18.5 14.54 18.36 14.87 18.19L17.86 19.98L19.98 17.86L18.19 14.87C18.36 14.54 18.5 14.2 18.62 13.84L22 13Z" stroke="white" stroke-width="2" stroke-miterlimit="10" stroke-linecap="round" stroke-linejoin="round"/>
</svg>
