<svg width="10" height="5" viewBox="0 0 10 5" fill="none" xmlns="http://www.w3.org/2000/svg">
<path d="M2.49012 3.63727L3.55731 0.0100203H5L3.20158 5H1.77866L0 0H1.43281L2.49012 3.63727Z" fill="white"/>
<path d="M7.84828 3.23293H7.1954V5H6V0H7.95862C8.54713 0 9.0069 0.130522 9.33793 0.391566C9.66897 0.65261 9.83448 1.0241 9.83448 1.50602C9.83448 1.85743 9.76092 2.13855 9.62299 2.36948C9.48506 2.6004 9.26437 2.78112 8.96092 2.92169L10 4.93976V4.98996H8.71264L7.84828 3.23293ZM7.2046 2.30924H7.95862C8.18851 2.30924 8.35402 2.249 8.47356 2.12851C8.5931 2.00803 8.64828 1.83735 8.64828 1.62651C8.64828 1.41566 8.5931 1.24498 8.47356 1.11446C8.35402 0.993976 8.18851 0.933735 7.95862 0.933735H7.2046V2.30924Z" fill="white"/>
</svg>
