<?xml version="1.0" encoding="UTF-8"?><!DOCTYPE svg PUBLIC "-//W3C//DTD SVG 1.1//EN" "http://www.w3.org/Graphics/SVG/1.1/DTD/svg11.dtd"><svg xmlns="http://www.w3.org/2000/svg" xmlns:xlink="http://www.w3.org/1999/xlink"><defs><clipPath id="clip0"><path fill="#fff" d="M0 0h40v29H0z"/></clipPath></defs><symbol id="Activities"><circle cx="19" cy="22" r="4" stroke="#fff" stroke-width="2"/><circle cx="12.5" cy="27.5" r="2.5" stroke="#fff" stroke-width="2"/><circle cx="27" cy="14" r="3" stroke="#fff" stroke-width="2"/><circle cx="26" cy="28" r="2" stroke="#fff" stroke-width="2"/><circle cx="15" cy="14" r="2" stroke="#fff" stroke-width="2"/><path d="M22 24l2 2M16 24.5L14.5 26m10-10l-3 3M16 16l1.5 2.5" stroke="#fff" stroke-width="2"/></symbol><symbol id="Assets"><path d="M22 15h-8c-.55 0-1-.45-1-1s.45-1 1-1h8c.55 0 1 .45 1 1s-.45 1-1 1zM22 20h-8c-.55 0-1-.45-1-1s.45-1 1-1h8c.55 0 1 .45 1 1s-.45 1-1 1zM20.11 25h-6.22c-.49 0-.89-.45-.89-1s.4-1 .89-1h6.22c.49 0 .89.45.89 1s-.4 1-.89 1z" fill="#fff"/><path d="M19 30h-8.16C9.27 30 8 28.73 8 27.16V10.84C8 9.27 9.27 8 10.84 8h14.32C26.73 8 28 9.27 28 10.84V19c0 .55-.45 1-1 1s-1-.45-1-1v-8.16c0-.46-.38-.84-.84-.84H10.84c-.46 0-.84.38-.84.84v16.32c0 .46.38.84.84.84H19c.55 0 1 .45 1 1s-.45 1-1 1z" fill="#fff"/><path d="M31 29h-6c-1.1 0-2-.9-2-2v-3c0-1.1.9-2 2-2h6c1.1 0 2 .9 2 2v3c0 1.1-.9 2-2 2zm-6-5v3h6v-3h-6zM33.133 32H22.867c-.477 0-.867-.45-.867-1s.39-1 .867-1h10.266c.477 0 .867.45.867 1s-.39 1-.867 1z" fill="#fff"/></symbol><symbol id="ChangeLog"><path d="M23 15h-7M23 20h-7M22 25h-6M18.37 30.01h-5.63V30c-.96 0-1.74-.79-1.74-1.76V10.76c0-.97.78-1.76 1.74-1.76h13.53c.95 0 1.73.79 1.73 1.76v7.8" stroke="#fff" stroke-width="2" stroke-miterlimit="10" stroke-linecap="round" stroke-linejoin="round"/><path d="M23.98 33.09l-1.63.41c-.41.1-.79-.21-.78-.63l.06-1.68c.01-.14.05-.27.14-.37l5.66-6.98c.22-.27.61-.31.88-.09l1.57 1.27c.27.22.31.61.09.88l-5.66 6.98c-.08.1-.2.18-.33.21zM30.7 24.27l-1.83-1.49a.45.45 0 01-.07-.64l.5-.62c.16-.2.45-.23.64-.07l1.83 1.49c.2.16.23.45.07.64l-.5.62c-.15.2-.44.23-.64.07z" fill="#fff"/></symbol><symbol id="Circle"><path d="M4.5 8a3.5 3.5 0 100-7 3.5 3.5 0 000 7z" stroke="#fff" stroke-width="2" stroke-miterlimit="10" stroke-linecap="round" stroke-linejoin="round"/></symbol><symbol id="Dashboard"><path fill-rule="evenodd" clip-rule="evenodd" d="M26.348 13.015a4 4 0 10.986.213 3.983 3.983 0 00-.986-.213zm-.713 2.018A2 2 0 1027.732 18h-1.025a1.5 1.5 0 01-1.414-2l.341-.967zm2.098.967a2.008 2.008 0 00-.213-.3l-.106.3h.319zM19 19v8h-2v-8a1 1 0 112 0zM15 22v5h-2v-5a1 1 0 112 0zM11 15v12H9V15a1 1 0 112 0z" fill="#fff"/><path fill-rule="evenodd" clip-rule="evenodd" d="M31 11H8a2 2 0 00-2 2v14a2 2 0 002 2h23a2 2 0 002-2V13a2 2 0 00-2-2zM8 9a4 4 0 00-4 4v14a4 4 0 004 4h23a4 4 0 004-4V13a4 4 0 00-4-4H8z" fill="#fff"/><path fill-rule="evenodd" clip-rule="evenodd" d="M23 22a1 1 0 100 2h6a1 1 0 100-2h-6zM23 25a1 1 0 100 2h6a1 1 0 100-2h-6z" fill="#fff"/></symbol><symbol id="Detections"><path d="M19.5 30C25.299 30 30 25.299 30 19.5S25.299 9 19.5 9 9 13.701 9 19.5 13.701 30 19.5 30z" stroke="#fff" stroke-width="2" stroke-miterlimit="10" stroke-linecap="round" stroke-linejoin="round"/><path d="M24.29 15.02a6.496 6.496 0 011.71 4.4c0 .28-.02.56-.05.83M21.81 25.49c-.72.27-1.5.42-2.31.42a6.5 6.5 0 01-6.5-6.5c0-1.62.59-3.1 1.57-4.24" stroke="#fff" stroke-width="2" stroke-miterlimit="10" stroke-linecap="round" stroke-linejoin="round"/><path d="M22.28 17.16c.52.62.83 1.42.83 2.29A3.55 3.55 0 0119.56 23 3.56 3.56 0 0116 19.45" stroke="#fff" stroke-width="2" stroke-miterlimit="10" stroke-linecap="round" stroke-linejoin="round"/><path d="M24.5 25a1.5 1.5 0 100-3 1.5 1.5 0 000 3zM17.5 14a1.5 1.5 0 100-3 1.5 1.5 0 000 3z" fill="#fff"/><path d="M20 19l5-5" stroke="#fff" stroke-width="2" stroke-miterlimit="10" stroke-linecap="round" stroke-linejoin="round"/><path d="M19.5 21a1.5 1.5 0 100-3 1.5 1.5 0 000 3z" fill="#fff"/></symbol><symbol id="DryRun"><path d="M17.49 22.637l1.067-3.627H20L18.202 24h-1.423L15 19h1.433l1.057 3.637zM22.848 22.233h-.653V24H21v-5h1.959c.588 0 1.048.13 1.379.392.331.26.496.632.496 1.114 0 .351-.073.633-.211.863-.138.231-.359.412-.662.553L25 23.94v.05h-1.287l-.865-1.757zm-.643-.924h.754c.23 0 .395-.06.515-.18.12-.121.174-.292.174-.503 0-.21-.055-.381-.174-.512-.12-.12-.285-.18-.515-.18h-.754v1.375z" fill="#fff"/><path d="M28.26 28.64h-4.57l-.82-1.94H17.4l-.89 1.94h-3.77c-1.51 0-2.74-1.31-2.74-2.92v-6.8c0-1.61 1.23-2.92 2.74-2.92h15.52c1.51 0 2.74 1.31 2.74 2.92v6.81c0 1.6-1.23 2.91-2.74 2.91z" stroke="#fff" stroke-width="2" stroke-miterlimit="10" stroke-linecap="round" stroke-linejoin="round"/><path d="M30 16.68l-2.65-2.74C26.77 13.33 26 13 25.2 13H15.1c-.95 0-1.84.47-2.43 1.27l-2.25 3.04" stroke="#fff" stroke-width="2" stroke-miterlimit="10" stroke-linecap="round" stroke-linejoin="round"/><path d="M32.5 24.5h-1c-.55 0-1-.45-1-1v-3c0-.55.45-1 1-1h1c.55 0 1 .45 1 1v3c0 .55-.45 1-1 1zM9.5 24.5h-1c-.55 0-1-.45-1-1v-3c0-.55.45-1 1-1h1c.55 0 1 .45 1 1v3c0 .55-.45 1-1 1z" stroke="#fff" stroke-miterlimit="10" stroke-linecap="round" stroke-linejoin="round"/></symbol><symbol id="mainLogo"><path d="M35.21 5.999v4.796h12.162v5.999H35.21v4.744h12.162v5.998H27.146V0h20.226v5.999H35.21zM74.703 27.458h-8.918l-4.216-8.024h-3.257v8.024h-8.077V0h14.486c2.916.04 5.53 1.124 7.342 3.058 1.68 1.778 2.613 4.156 2.613 6.678 0 2.523-.932 4.901-2.613 6.679a9.701 9.701 0 01-2.246 1.75l4.886 9.293zM67.335 9.736c0-.731-.276-2.43-2.785-2.43l-6.238-.014v4.875h6.238c2.509 0 2.785-1.699 2.785-2.43zM104.2 13.762c0 7.593-6.186 13.761-13.83 13.761-7.63 0-13.829-6.155-13.829-13.761C76.541 6.155 82.741 0 90.371 0S104.2 6.155 104.2 13.762zm-8.037 0c0-3.176-2.588-5.764-5.792-5.764-3.192 0-5.792 2.575-5.792 5.764s2.587 5.763 5.792 5.763c3.191-.013 5.792-2.588 5.792-5.763zM24.284 0H8.93L1.589 7.057h11.44L0 20.401v7.057h24.284V20.4H11.255L24.284 7.057V0z" fill="#fff"/><path d="M.512 0v5.24h.04C2.01 3.843 4.426 1.517 6.002 0H.512zM110.937 25.877A3.131 3.131 0 01107.798 29a3.13 3.13 0 01-3.138-3.123 3.13 3.13 0 013.138-3.124 3.13 3.13 0 013.139 3.123z" fill="#0CD89B"/></symbol><symbol id="Prerequisites"><path d="M24 16h-4M24 21h-4M24 26h-4M12.74 31c-.96 0-1.74-.79-1.74-1.76V11.76c0-.97.78-1.76 1.74-1.76h13.53c.95 0 1.73.79 1.73 1.76v17.6c0 .91-.73 1.65-1.63 1.65H12.74V31z" stroke="#fff" stroke-width="2" stroke-miterlimit="10" stroke-linecap="round" stroke-linejoin="round"/><path d="M16.92 14.26l-2 3-1-1M16.92 19.26l-2 3-1-1M16.92 24.26l-2 3-1-1" stroke="#fff" stroke-width="1.5" stroke-miterlimit="10" stroke-linecap="round" stroke-linejoin="round"/></symbol><symbol id="Prevention"><path d="M21 23h-9c-.55 0-1-.45-1-1V12c0-.55.45-1 1-1h15c.55 0 1 .45 1 1v3" stroke="#fff" stroke-width="2" stroke-miterlimit="10" stroke-linecap="round"/><path d="M21.067 27H8.933C8.42 27 8 26.55 8 26s.42-1 .933-1h12.134c.513 0 .933.45.933 1s-.42 1-.933 1z" fill="#fff"/><path d="M28 25c-1.1 0-2-.9-2-2v-3c0-1.1.9-2 2-2s2 .9 2 2v3c0 1.1-.9 2-2 2z" stroke="#fff" stroke-width="2" stroke-miterlimit="10"/><path d="M32 29h-8c-.55 0-1-.45-1-1v-5c0-.55.45-1 1-1h8c.55 0 1 .45 1 1v5c0 .55-.45 1-1 1z" fill="#fff"/><rect x="27" y="24" width="2" height="3" rx="1" fill="#3B3B54"/></symbol><symbol id="Settings"><path d="M11.5 15a3.5 3.5 0 100-7 3.5 3.5 0 000 7z" stroke="#fff" stroke-width="2" stroke-miterlimit="10" stroke-linecap="round" stroke-linejoin="round"/><path d="M22 13v-3l-3.38-.84c-.12-.36-.27-.71-.44-1.04L19.9 5.2l-2.14-2.11-2.86 1.74c-.34-.18-.7-.33-1.07-.45L13 1h-3l-.84 3.38c-.36.12-.7.26-1.03.43l-2.99-1.8-2.13 2.13L4.8 8.13c-.16.33-.3.67-.42 1.03L1 10v3l3.38.84c.12.36.26.7.43 1.03l-1.79 2.99 2.12 2.12 2.99-1.79c.33.17.67.31 1.03.43L10 22h3l.84-3.38c.36-.12.7-.26 1.03-.43l2.99 1.79 2.12-2.12-1.79-2.99c.17-.33.31-.67.43-1.03L22 13z" stroke="#fff" stroke-width="2" stroke-miterlimit="10" stroke-linecap="round" stroke-linejoin="round"/></symbol><symbol id="smallLogo"><g clip-path="url(#clip0)"><path d="M29.284 0H13.93L6.589 7.057h11.44L5 20.401v7.057h24.284V20.4H16.255L29.284 7.057V0z" fill="#fff"/><path d="M5.512 0v5.24h.04C7.01 3.843 9.426 1.517 11.002 0h-5.49zM39.278 25.877a3.131 3.131 0 01-3.14 3.124A3.131 3.131 0 0133 25.877a3.131 3.131 0 013.139-3.123 3.131 3.131 0 013.139 3.123z" fill="#0CD89B"/></g></symbol><symbol id="VR"><path d="M2.49 3.637L3.557.01H5L3.202 5H1.779L0 0h1.433L2.49 3.637zM7.848 3.233h-.653V5H6V0h1.959c.588 0 1.048.13 1.379.392.331.26.496.632.496 1.114 0 .351-.073.633-.211.863-.138.231-.359.412-.662.553L10 4.94v.05H8.713l-.865-1.757zm-.643-.924h.754c.23 0 .395-.06.515-.18.12-.121.174-.292.174-.502 0-.211-.055-.382-.174-.513-.12-.12-.285-.18-.515-.18h-.754v1.375z" fill="#fff"/></symbol><symbol id="VRwrapper"><path d="M19.26 13.64h-4.57l-.82-1.94H8.4l-.89 1.94H3.74C2.23 13.64 1 12.33 1 10.72v-6.8C1 2.31 2.23 1 3.74 1h15.52C20.77 1 22 2.31 22 3.92v6.81c0 1.6-1.23 2.91-2.74 2.91z" stroke="#fff" stroke-width="2" stroke-miterlimit="10" stroke-linecap="round" stroke-linejoin="round"/></symbol></svg>